<?xml version="1.0" standalone="no"?>
<!DOCTYPE svg PUBLIC "-//W3C//DTD SVG 1.1//EN" "http://www.w3.org/Graphics/SVG/1.1/DTD/svg11.dtd" >
<svg xmlns="http://www.w3.org/2000/svg" xmlns:xlink="http://www.w3.org/1999/xlink" version="1.1">
<metadata>
Created by FontForge 20200511 at Sat Apr 23 15:42:54 2016
 By convertio
2016 Iconian Fonts - www.iconian.com
</metadata>
<defs>
<font id="EarthOrbiterTitle" horiz-adv-x="958" >
  <font-face 
    font-family="Earth Orbiter Title"
    font-weight="400"
    font-stretch="normal"
    units-per-em="1000"
    panose-1="0 0 0 0 0 0 0 0 0 0"
    ascent="800"
    descent="-200"
    x-height="624"
    cap-height="624"
    bbox="50 -174 1224 807"
    underline-thickness="50"
    underline-position="-125"
    unicode-range="U+0020-2122"
  />
<missing-glyph horiz-adv-x="500" 
 />
    <glyph glyph-name=".notdef" horiz-adv-x="500" 
 />
    <glyph glyph-name=".null" horiz-adv-x="0" 
 />
    <glyph glyph-name="nonmarkingreturn" horiz-adv-x="500" 
 />
    <glyph glyph-name="space" unicode=" " horiz-adv-x="415" 
 />
    <glyph glyph-name="space" unicode="&#xa0;" horiz-adv-x="415" 
 />
    <glyph glyph-name="exclam" unicode="!" horiz-adv-x="420" 
d="M155 52q0 23 16 38.5t39 15.5t39 -15.5t16 -38.5t-16 -38.5t-39 -15.5t-39 15.5t-16 38.5zM245 199h-70v425h70v-425z" />
    <glyph glyph-name="quotedbl" unicode="&#x22;" horiz-adv-x="612" 
d="M346 457q12 14 18.5 31t8.5 32q-16 5 -27.5 19.5t-11.5 32.5q0 23 16 38.5t39 15.5t40 -17t17 -40q0 -33 -8.5 -62.5t-24.5 -49.5h-67zM179 457q12 14 18.5 31t8.5 32q-16 5 -27.5 19.5t-11.5 32.5q0 23 16 38.5t39 15.5t40 -17t17 -40q0 -33 -8.5 -62.5t-24.5 -49.5h-67
z" />
    <glyph glyph-name="numbersign" unicode="#" horiz-adv-x="1025" 
d="M175 406h463v-190h-463v-72h144v-144h70v144h249v-144h70v144h145v72h-145v190h145v72h-145v146h-70v-146h-249v146h-70v-146h-144v-72z" />
    <glyph glyph-name="dollar" unicode="$" horiz-adv-x="883" 
d="M706 624h-230v124h-70v-124h-85q-32 0 -60 -12.5t-49 -35t-33 -54.5t-12 -71q0 -35 12 -66t33 -54t48.5 -37t58.5 -14v65q-42 8 -61 36t-19 70q0 48 27 79t81 31h59v-498h-229v-63h229v-128h70v128h86q31 0 59 12.5t49 35t33.5 54.5t12.5 71q0 34 -12 65.5t-33 54.5
t-48.5 37t-58.5 14v-66q42 -8 61 -35.5t19 -69.5q0 -48 -27 -79t-81 -31h-60v498h230v63z" />
    <glyph glyph-name="percent" unicode="%" horiz-adv-x="1050" 
d="M332 0l314 624h75l-314 -624h-75zM628 155q0 -20 7.5 -37t20.5 -30t31 -20.5t38 -7.5q19 0 37 7.5t31.5 20.5t21.5 30t8 37q0 19 -7.5 37t-21 31t-31 21t-38.5 8q-20 0 -37.5 -8t-31 -21t-21 -31t-7.5 -37zM566 156q0 32 12.5 60.5t34.5 50t50.5 34t61.5 12.5t62 -12.5
t50 -34t33.5 -50t12.5 -60.5q0 -33 -12.5 -61.5t-33.5 -50t-50 -34t-62 -12.5t-61.5 12.5t-50.5 34t-34.5 50t-12.5 61.5zM229 468q0 -20 7.5 -37t20.5 -30t31 -20.5t38 -7.5q19 0 37 7.5t31.5 20.5t21.5 30t8 37q0 19 -7.5 37t-21 31t-31 21t-38.5 8q-20 0 -37.5 -8
t-31 -21t-21 -31t-7.5 -37zM167 469q0 32 12.5 60.5t34.5 50t50.5 34t61.5 12.5t62 -12.5t50 -34t33.5 -50t12.5 -60.5q0 -33 -12.5 -61.5t-33.5 -50t-50 -34t-62 -12.5t-61.5 12.5t-50.5 34t-34.5 50t-12.5 61.5z" />
    <glyph glyph-name="ampersand" unicode="&#x26;" horiz-adv-x="922" 
d="M444 344v-63h132q24 -18 41 -45t17 -53q0 -20 -6 -41.5t-17.5 -39t-28.5 -28.5t-39 -11h-211q-22 0 -39 11t-28.5 28.5t-17.5 39t-6 41.5q0 25 17.5 53t41.5 45v63q-24 17 -42 44.5t-18 52.5q0 20 6.5 41.5t18.5 39t29.5 28.5t39.5 11h179q27 0 44.5 -16.5t29.5 -40.5h83
q-17 54 -56.5 87t-87.5 33h-205q-32 0 -60 -14.5t-49 -39t-33 -58.5t-12 -73q0 -21 5.5 -40t14.5 -35.5t20 -30t21 -23.5q-10 -11 -20.5 -24t-19.5 -29t-15 -34t-6 -38q0 -39 12 -73t33 -58.5t49 -39t60 -14.5h233q31 0 59 14.5t49 39t33.5 58.5t12.5 73q0 28 -11 52t-26 44
h79v63h-306z" />
    <glyph glyph-name="quotesingle" unicode="'" horiz-adv-x="445" 
d="M179 457q12 14 18.5 31t8.5 32q-16 5 -27.5 19.5t-11.5 32.5q0 23 16 38.5t39 15.5t40 -17t17 -40q0 -33 -8.5 -62.5t-24.5 -49.5h-67z" />
    <glyph glyph-name="parenleft" unicode="(" horiz-adv-x="611" 
d="M162 307q0 -66 21.5 -125.5t58.5 -106t87.5 -77.5t109.5 -40v72q-44 9 -82 34.5t-66 63t-43.5 83t-15.5 95.5q0 48 15.5 94t43.5 83.5t66 64t82 35.5v73q-59 -9 -109.5 -40t-87.5 -77.5t-58.5 -106t-21.5 -125.5z" />
    <glyph glyph-name="parenright" unicode=")" horiz-adv-x="611" 
d="M449 307q0 -66 -21.5 -125.5t-58.5 -106t-88 -77.5t-109 -40v72q44 9 82 34.5t65.5 63t43.5 83t16 95.5q0 48 -16 94t-43.5 83.5t-65.5 64t-82 35.5v73q58 -9 109 -40t88 -77.5t58.5 -106t21.5 -125.5z" />
    <glyph glyph-name="asterisk" unicode="*" horiz-adv-x="477" 
d="M254 527l51 33l-36 31l46 2l-20 50l-36 -22l9 45h-63l12 -45l-36 23l-19 -51l43 -2l-35 -29l50 -35l17 40z" />
    <glyph glyph-name="plus" unicode="+" horiz-adv-x="709" 
d="M172 296h150v-150h64v150h151v64h-151v151h-64v-151h-150v-64z" />
    <glyph glyph-name="comma" unicode="," horiz-adv-x="444" 
d="M179 -63q12 14 18.5 31t8.5 32q-16 5 -27.5 19.5t-11.5 32.5q0 23 16 38.5t39 15.5t39.5 -16.5t16.5 -39.5q0 -33 -8 -63t-24 -50h-67z" />
    <glyph glyph-name="hyphen" unicode="-" horiz-adv-x="709" 
d="M172 296h365v64h-365v-64z" />
    <glyph glyph-name="period" unicode="." horiz-adv-x="444" 
d="M167 52q0 23 16 38.5t39 15.5t39 -15.5t16 -38.5t-16 -38.5t-39 -15.5t-39 15.5t-16 38.5z" />
    <glyph glyph-name="slash" unicode="/" horiz-adv-x="683" 
d="M222 0l314 624h-75l-314 -624h75z" />
    <glyph glyph-name="zero" unicode="0" 
d="M162 312q0 65 25 122.5t67.5 100t100.5 67.5t124 25t124 -25t100.5 -67.5t67.5 -100t25 -122.5t-25 -122.5t-67.5 -100t-100.5 -67.5t-124 -25t-124 25t-100.5 67.5t-67.5 100t-25 122.5zM229 311q0 -63 29.5 -117.5t80.5 -88.5l224 440q-20 8 -40.5 11.5t-42.5 3.5
q-51 0 -97 -20.5t-80 -54.5t-54 -79.5t-20 -94.5zM730 311q0 61 -28.5 114.5t-79.5 88.5l-223 -439q19 -6 38.5 -8.5t41.5 -2.5q51 0 96.5 20t80 54t54.5 78.5t20 94.5z" />
    <glyph glyph-name="one" unicode="1" horiz-adv-x="546" 
d="M172 624h199v-624h-70v561h-129v63z" />
    <glyph glyph-name="two" unicode="2" horiz-adv-x="888" 
d="M182 561h359q54 0 81 -31t27 -79q0 -42 -19 -70t-61 -36v-65q31 0 58.5 14t48.5 37t33 54t12 66q0 39 -12.5 71t-33.5 54.5t-49 35t-59 12.5h-385v-63zM711 63h-467v110q0 42 19 69.5t61 35.5v66q-31 0 -58.5 -14t-48.5 -37t-33 -54.5t-12 -65.5v-173h539v63z" />
    <glyph glyph-name="three" unicode="3" horiz-adv-x="823" 
d="M399 344h126q23 17 40.5 44.5t17.5 52.5q0 20 -6.5 41.5t-18.5 39t-29.5 28.5t-39.5 11h-317v63h330q31 0 59 -14.5t49 -39t33.5 -58.5t12.5 -73q0 -21 -5.5 -40t-14.5 -35.5t-20 -30t-21 -23.5q10 -11 20.5 -24t19.5 -29t15 -34t6 -38q0 -39 -12.5 -73t-33.5 -58.5
t-49 -39t-59 -14.5h-330v63h319q22 0 39 11t28.5 28.5t17.5 39t6 41.5q0 26 -17 53t-41 45h-125v63z" />
    <glyph glyph-name="four" unicode="4" horiz-adv-x="927" 
d="M175 624v-361h411v63h-341v298h-70zM752 0v624h-70v-624h70z" />
    <glyph glyph-name="five" unicode="5" horiz-adv-x="891" 
d="M714 561h-467v-216h80v-65h-152v344h539v-63zM185 63h359q54 0 81 31t27 79q0 42 -19 69.5t-61 35.5v66q31 0 58.5 -14t48.5 -37t33 -54.5t12 -65.5q0 -39 -12.5 -71t-33.5 -54.5t-49 -35t-59 -12.5h-385v63z" />
    <glyph glyph-name="six" unicode="6" 
d="M726 264q-14 -45 -39.5 -82t-58.5 -63.5t-71 -41t-78 -14.5q-45 0 -86 15.5t-73.5 43t-55 64t-31.5 78.5h493zM796 312v15h-568q3 46 24.5 88.5t55.5 75t78.5 51.5t93.5 19q38 0 73.5 -12t65.5 -32.5t53.5 -49t38.5 -61.5l56 36q-19 40 -48.5 74t-66.5 59t-81 38.5
t-92 13.5q-66 0 -124 -25t-100.5 -67.5t-67.5 -100t-25 -122.5t25 -122.5t67.5 -100t100.5 -67.5t124 -25q54 0 110.5 24.5t102.5 67.5t75 100t29 123z" />
    <glyph glyph-name="seven" unicode="7" horiz-adv-x="870" 
d="M172 0l419 561h-419v63h551l-466 -624h-85z" />
    <glyph glyph-name="eight" unicode="8" horiz-adv-x="882" 
d="M167 439q0 39 12 73t33 58.5t49 39t60 14.5h240q31 0 59 -14.5t49 -39t33.5 -58.5t12.5 -73q0 -21 -5.5 -40t-14.5 -35.5t-20 -30t-21 -23.5q10 -11 20.5 -24t19.5 -29t15 -34t6 -38q0 -39 -12.5 -73t-33.5 -58.5t-49 -39t-59 -14.5h-240q-32 0 -60 14.5t-49 39t-33 58.5
t-12 73q0 20 6 38t15 34t19.5 29t20.5 24q-10 10 -21 23.5t-20 30t-14.5 35.5t-5.5 40zM458 344h126q23 17 40.5 44.5t17.5 52.5q0 20 -6.5 41.5t-18.5 39t-29.5 28.5t-39.5 11h-214q-22 0 -39.5 -11t-29.5 -28.5t-18.5 -39t-6.5 -41.5q0 -25 18 -52.5t42 -44.5v-63
q-24 -17 -41.5 -45t-17.5 -53q0 -20 6 -41.5t17.5 -39t28.5 -28.5t39 -11h218q22 0 39 11t28.5 28.5t17.5 39t6 41.5q0 26 -17 53t-41 45h-125v63z" />
    <glyph glyph-name="nine" unicode="9" 
d="M232 360q13 45 38.5 82t58.5 63t72 40.5t78 14.5q45 0 86 -15.5t73.5 -42.5t55 -63.5t31.5 -78.5h-493zM162 312v-15h568q-3 -47 -24.5 -89t-55.5 -74t-78.5 -51t-93.5 -19q-38 0 -73.5 11.5t-65.5 32t-53.5 48.5t-38.5 61l-56 -36q19 -41 48 -74.5t66.5 -58t81.5 -38
t92 -13.5q66 0 124 25t100.5 67.5t67.5 100t25 122.5t-25 122.5t-67.5 100t-100.5 67.5t-124 25q-54 0 -110.5 -24.5t-102.5 -67.5t-75 -100t-29 -123z" />
    <glyph glyph-name="colon" unicode=":" horiz-adv-x="444" 
d="M167 52q0 23 16 38.5t39 15.5t39 -15.5t16 -38.5t-16 -38.5t-39 -15.5t-39 15.5t-16 38.5zM167 414q0 23 16 38.5t39 15.5t39 -15.5t16 -38.5t-16 -38.5t-39 -15.5t-39 15.5t-16 38.5z" />
    <glyph glyph-name="semicolon" unicode=";" horiz-adv-x="444" 
d="M167 414q0 23 16 38.5t39 15.5t39.5 -15.5t16.5 -38.5t-16.5 -38.5t-39.5 -15.5t-39 15.5t-16 38.5zM179 -63q12 14 18.5 31t8.5 32q-16 5 -27.5 19.5t-11.5 32.5q0 23 16 38.5t39 15.5t39.5 -16.5t16.5 -39.5q0 -33 -8 -63t-24 -50h-67z" />
    <glyph glyph-name="less" unicode="&#x3c;" horiz-adv-x="535" 
d="M307 624h76l-153 -315l153 -309h-76l-155 309z" />
    <glyph glyph-name="equal" unicode="=" horiz-adv-x="709" 
d="M172 201h365v64h-365v-64zM172 357h365v63h-365v-63z" />
    <glyph glyph-name="greater" unicode="&#x3e;" horiz-adv-x="535" 
d="M152 624h76l155 -315l-155 -309h-76l153 309z" />
    <glyph glyph-name="question" unicode="?" horiz-adv-x="878" 
d="M172 561v63h385q31 0 59 -12.5t49 -35t33.5 -54.5t12.5 -71q0 -35 -12 -66t-33 -54t-48.5 -37t-58.5 -14v65q42 8 61 36t19 70q0 48 -27 79t-81 31h-359zM234 199v27q15 51 54 84.5t90 33.5v-66q-52 -10 -71 -52v-27h-73zM216 52q0 23 16 38.5t39 15.5t39 -15.5t16 -38.5
t-16 -38.5t-39 -15.5t-39 15.5t-16 38.5z" />
    <glyph glyph-name="at" unicode="@" horiz-adv-x="1016" 
d="M335 314q0 -34 13.5 -64.5t36.5 -53t53.5 -36t65.5 -13.5q54 0 95 29t59 75h186v67q0 71 -28 131.5t-75 104.5t-109 69t-129 25q-71 0 -132 -26.5t-106.5 -72t-71.5 -106t-26 -129.5t26 -130t71.5 -106t106.5 -71.5t132 -26.5q81 0 148 34.5t113 91.5l-57 42
q-37 -45 -90 -71.5t-113 -26.5q-55 0 -103.5 21.5t-85 58.5t-57.5 84.5t-21 100.5q0 52 21 100t57 84t84.5 57.5t103.5 21.5q54 0 103 -20.5t86.5 -56t60 -82.5t23.5 -100h-168v-4q0 -21 -8 -39.5t-22 -32.5t-33 -22.5t-41 -8.5q-21 0 -40 8.5t-33 22.5t-22 32.5t-8 39.5
q0 20 8 38.5t22 32t32.5 21.5t40.5 8t41.5 -9t33.5 -23h77q-20 43 -60.5 70.5t-91.5 27.5q-35 0 -65.5 -13t-53.5 -36t-36.5 -53.5t-13.5 -64.5z" />
    <glyph glyph-name="A" unicode="A" horiz-adv-x="951" 
d="M804 0l-330 657l-327 -657h447l-43 63h-294l217 444l252 -507h78z" />
    <glyph glyph-name="B" unicode="B" horiz-adv-x="891" 
d="M175 0v624h395q31 0 59 -14.5t49 -39t33.5 -58.5t12.5 -73q0 -21 -5.5 -40t-14.5 -35.5t-20 -30t-21 -23.5q10 -11 20.5 -24t19.5 -29t15 -34t6 -38q0 -39 -12.5 -73t-33.5 -58.5t-49 -39t-59 -14.5h-395zM467 344h126q23 17 40 44.5t17 52.5q0 20 -6.5 41.5t-18.5 39
t-29 28.5t-39 11h-312v-498h314q22 0 39 11t28.5 28.5t17.5 39t6 41.5q0 26 -17 53t-41 45h-125v63z" />
    <glyph glyph-name="C" unicode="C" horiz-adv-x="934" 
d="M162 312q0 65 25 122.5t67.5 100t100.5 67.5t124 25q48 0 92 -13.5t81 -38.5t66.5 -59t48.5 -74l-56 -36q-15 33 -38.5 61t-53.5 49t-65.5 32.5t-73.5 11.5q-51 0 -97 -20.5t-80 -54.5t-54 -79.5t-20 -94.5q0 -50 20 -94.5t54 -78.5t79.5 -54t96.5 -20q35 0 68 9.5
t61.5 26.5t52 40.5t39.5 52.5l48 -49q-42 -66 -111.5 -106.5t-157.5 -40.5q-66 0 -124 25t-100.5 67.5t-67.5 100t-25 122.5z" />
    <glyph glyph-name="D" unicode="D" horiz-adv-x="914" 
d="M245 64h190q46 0 91.5 19.5t80.5 53.5t57 78t22 94q0 49 -20 94.5t-54 80t-79.5 55t-96.5 20.5h-191v-495zM175 0v624h260q66 0 124 -24.5t100.5 -67.5t67.5 -100t25 -122t-27 -121.5t-71 -98.5t-100.5 -66t-116.5 -24h-262z" />
    <glyph glyph-name="E" unicode="E" horiz-adv-x="825" 
d="M642 326h-299v-63h299v63zM175 0h475v63h-405v498h405v63h-475v-624z" />
    <glyph glyph-name="F" unicode="F" horiz-adv-x="825" 
d="M642 326h-301v-63h301v63zM175 0h70v561h405v63h-475v-624z" />
    <glyph glyph-name="G" unicode="G" horiz-adv-x="934" 
d="M162 312q0 -65 25 -122.5t67.5 -100t100.5 -67.5t124 -25q88 0 157.5 40.5t111.5 106.5l-48 49q-16 -29 -39.5 -52.5t-52 -40.5t-61.5 -26.5t-68 -9.5q-51 0 -96.5 20t-79.5 54t-54 78.5t-20 94.5q0 49 20 94.5t54 79.5t80 54.5t97 20.5q38 0 73.5 -11.5t65.5 -32.5
t53.5 -49t38.5 -61l56 36q-19 40 -48.5 74t-66.5 59t-81 38.5t-92 13.5q-66 0 -124 -25t-100.5 -67.5t-67.5 -100t-25 -122.5zM745 326h-299v-63h299v63z" />
    <glyph glyph-name="H" unicode="H" horiz-adv-x="927" 
d="M245 0v263h345v63h-345v298h-70v-624h70zM752 0v624h-70v-624h70z" />
    <glyph glyph-name="I" unicode="I" horiz-adv-x="879" 
d="M172 624h535v-63h-233v-498h233v-63h-535v63h232v498h-232v63z" />
    <glyph glyph-name="J" unicode="J" horiz-adv-x="976" 
d="M167 279h69q6 -45 28 -84t55 -68.5t75.5 -46t89.5 -16.5t89.5 16.5t75.5 46t54.5 68.5t27.5 84v345h70v-314q0 -65 -25 -122t-67.5 -99.5t-100.5 -67t-124 -24.5q-62 0 -117 21.5t-97.5 59.5t-69.5 89.5t-33 111.5z" />
    <glyph glyph-name="K" unicode="K" horiz-adv-x="932" 
d="M245 0h-70v624h70v-283h212v-63h-212v-278zM704 624h76l-153 -315l153 -309h-76l-155 309z" />
    <glyph glyph-name="L" unicode="L" horiz-adv-x="822" 
d="M175 0h475v63h-405v561h-70v-624z" />
    <glyph glyph-name="M" unicode="M" horiz-adv-x="1165" 
d="M941 0h77l-310 643l-127 -272l-131 272l-303 -643h77l226 480l131 -273l129 273z" />
    <glyph glyph-name="N" unicode="N" horiz-adv-x="932" 
d="M245 0h-70v624h117l395 -565v565h70v-624h-110l-402 566v-566z" />
    <glyph glyph-name="O" unicode="O" 
d="M229 311q0 -50 20 -94.5t54 -78.5t79.5 -54t96.5 -20t96.5 20t80 54t54.5 78.5t20 94.5q0 49 -20 94.5t-54 79.5t-79.5 54.5t-96.5 20.5t-97 -20.5t-80 -54.5t-54 -79.5t-20 -94.5zM162 312q0 65 25 122.5t67.5 100t100.5 67.5t124 25t124 -25t100.5 -67.5t67.5 -100
t25 -122.5t-25 -122.5t-67.5 -100t-100.5 -67.5t-124 -25t-124 25t-100.5 67.5t-67.5 100t-25 122.5z" />
    <glyph glyph-name="P" unicode="P" horiz-adv-x="891" 
d="M175 0v624h395q31 0 59 -14.5t49 -39t33.5 -58.5t12.5 -73q0 -35 -12 -66.5t-33 -56t-48.5 -39t-58.5 -14.5h-105v63h93q24 0 41 11t28.5 28t16.5 37t5 38q0 20 -6.5 41.5t-18.5 39t-29.5 29t-39.5 11.5h-312v-561h-70z" />
    <glyph glyph-name="Q" unicode="Q" 
d="M162 311q0 65 25 122.5t67.5 100t100.5 67.5t124 25t124 -25t100.5 -67.5t67.5 -100t25 -122.5q0 -60 -20.5 -111.5t-55.5 -93.5l69 -69l-62 -47l-66 64q-38 -27 -84.5 -42t-97.5 -15q-66 0 -124 24.5t-100.5 67.5t-67.5 100t-25 122zM229 310q0 -50 20 -94.5t54 -78
t79.5 -53.5t96.5 -20t96.5 20t80 53.5t54.5 78t20 94.5q0 49 -20 94.5t-54 79.5t-79.5 54.5t-96.5 20.5t-97 -20.5t-80 -54.5t-54 -79.5t-20 -94.5z" />
    <glyph glyph-name="R" unicode="R" horiz-adv-x="891" 
d="M631 0l-167 326h96q24 0 41 11t28.5 28t16.5 37t5 38q0 20 -6.5 41.5t-18.5 39t-29.5 29t-39.5 11.5h-312v-561h-70v624h395q31 0 59 -14.5t49 -39t33.5 -58.5t12.5 -73q0 -35 -12 -66.5t-32.5 -56t-48 -39t-58.5 -14.5l133 -263h-75z" />
    <glyph glyph-name="S" unicode="S" horiz-adv-x="883" 
d="M706 561h-359q-54 0 -81 -31t-27 -79q0 -42 19 -70t61 -36v-65q-31 0 -58.5 14t-48.5 37t-33 54t-12 66q0 39 12 71t33 54.5t49 35t60 12.5h385v-63zM177 63h359q54 0 81 31t27 79q0 42 -19 69.5t-61 35.5v66q31 0 58.5 -14t48.5 -37t33 -54.5t12 -65.5q0 -39 -12.5 -71
t-33.5 -54.5t-49 -35t-59 -12.5h-385v63z" />
    <glyph glyph-name="T" unicode="T" horiz-adv-x="889" 
d="M172 624h545v-63h-238v-561h-70v561h-237v63z" />
    <glyph glyph-name="U" unicode="U" horiz-adv-x="985" 
d="M175 310v314h70v-345q6 -45 28 -84t55 -68.5t75.5 -46t89.5 -16.5t89.5 16.5t75.5 46t54.5 68.5t27.5 84v345h70v-314q0 -65 -25 -122t-67.5 -99.5t-100.5 -67t-124 -24.5t-124 24.5t-101 67t-68 99.5t-25 122z" />
    <glyph glyph-name="V" unicode="V" horiz-adv-x="951" 
d="M804 624l-330 -657l-327 657h80l247 -507l250 507h80z" />
    <glyph glyph-name="W" unicode="W" horiz-adv-x="1093" 
d="M245 624h-70v-624h120l249 510l252 -510h122v624h-70v-572l-304 605l-299 -600v567z" />
    <glyph glyph-name="X" unicode="X" horiz-adv-x="915" 
d="M152 624h76l156 -315l-156 -309h-76l153 309zM687 624h76l-153 -315l153 -309h-76l-156 309z" />
    <glyph glyph-name="Y" unicode="Y" horiz-adv-x="905" 
d="M417 0v220l-270 404h84l219 -321l224 321h84l-271 -399v-225h-70z" />
    <glyph glyph-name="Z" unicode="Z" horiz-adv-x="895" 
d="M172 0l418 561h-418v63h551l-417 -561h416v-63h-550z" />
    <glyph glyph-name="bracketleft" unicode="[" horiz-adv-x="616" 
d="M175 -37h269v63h-199v572h199v63h-269v-698z" />
    <glyph glyph-name="backslash" unicode="\" horiz-adv-x="693" 
d="M466 0l-314 624h75l314 -624h-75z" />
    <glyph glyph-name="bracketright" unicode="]" horiz-adv-x="616" 
d="M441 -37h-269v63h199v572h-199v63h269v-698z" />
    <glyph glyph-name="asciicircum" unicode="^" horiz-adv-x="951" 
d="M804 0l-330 657l-327 -657h78l249 507l252 -507h78z" />
    <glyph glyph-name="underscore" unicode="_" horiz-adv-x="845" 
d="M167 0h511v64h-511v-64z" />
    <glyph glyph-name="grave" unicode="`" horiz-adv-x="386" 
d="M167 807l90 -89l-57 -47l-93 85z" />
    <glyph glyph-name="a" unicode="a" horiz-adv-x="951" 
d="M147 0l330 657l327 -657h-447l43 63h294l-217 444l-252 -507h-78z" />
    <glyph glyph-name="b" unicode="b" horiz-adv-x="891" 
d="M175 0v624h395q31 0 59 -14.5t49 -39t33.5 -58.5t12.5 -73q0 -21 -5.5 -40t-14.5 -35.5t-20 -30t-21 -23.5q10 -11 20.5 -24t19.5 -29t15 -34t6 -38q0 -39 -12.5 -73t-33.5 -58.5t-49 -39t-59 -14.5h-395zM467 344h126q23 17 40 44.5t17 52.5q0 20 -6.5 41.5t-18.5 39
t-29 28.5t-39 11h-312v-498h314q22 0 39 11t28.5 28.5t17.5 39t6 41.5q0 26 -17 53t-41 45h-125v63z" />
    <glyph glyph-name="c" unicode="c" horiz-adv-x="934" 
d="M162 312q0 65 25 122.5t67.5 100t100.5 67.5t124 25q48 0 92 -13.5t81 -38.5t66.5 -59t48.5 -74l-56 -36q-15 33 -38.5 61t-53.5 49t-65.5 32.5t-73.5 11.5q-51 0 -97 -20.5t-80 -54.5t-54 -79.5t-20 -94.5q0 -50 20 -94.5t54 -78.5t79.5 -54t96.5 -20q35 0 68 9.5
t61.5 26.5t52 40.5t39.5 52.5l48 -49q-42 -66 -111.5 -106.5t-157.5 -40.5q-66 0 -124 25t-100.5 67.5t-67.5 100t-25 122.5z" />
    <glyph glyph-name="d" unicode="d" horiz-adv-x="914" 
d="M245 64h190q46 0 91.5 19.5t80.5 53.5t57 78t22 94q0 49 -20 94.5t-54 80t-79.5 55t-96.5 20.5h-191v-495zM175 0v624h260q66 0 124 -24.5t100.5 -67.5t67.5 -100t25 -122t-27 -121.5t-71 -98.5t-100.5 -66t-116.5 -24h-262z" />
    <glyph glyph-name="e" unicode="e" horiz-adv-x="825" 
d="M642 326h-299v-63h299v63zM175 0h475v63h-405v498h405v63h-475v-624z" />
    <glyph glyph-name="f" unicode="f" horiz-adv-x="825" 
d="M642 326h-301v-63h301v63zM175 0h70v561h405v63h-475v-624z" />
    <glyph glyph-name="g" unicode="g" horiz-adv-x="934" 
d="M162 312q0 -65 25 -122.5t67.5 -100t100.5 -67.5t124 -25q88 0 157.5 40.5t111.5 106.5l-48 49q-16 -29 -39.5 -52.5t-52 -40.5t-61.5 -26.5t-68 -9.5q-51 0 -96.5 20t-79.5 54t-54 78.5t-20 94.5q0 49 20 94.5t54 79.5t80 54.5t97 20.5q38 0 73.5 -11.5t65.5 -32.5
t53.5 -49t38.5 -61l56 36q-19 40 -48.5 74t-66.5 59t-81 38.5t-92 13.5q-66 0 -124 -25t-100.5 -67.5t-67.5 -100t-25 -122.5zM745 326h-299v-63h299v63z" />
    <glyph glyph-name="h" unicode="h" horiz-adv-x="927" 
d="M682 0v263h-345v63h345v298h70v-624h-70zM175 0v624h70v-624h-70z" />
    <glyph glyph-name="i" unicode="i" horiz-adv-x="421" 
d="M175 0h71v624h-71v-624z" />
    <glyph glyph-name="j" unicode="j" horiz-adv-x="928" 
d="M436 -3q-88 0 -160 42t-114 111l52 48q32 -60 90.5 -97.5t131.5 -37.5q47 0 89.5 17t75.5 46t54.5 68.5t27.5 84.5v345h70v-314q0 -65 -25 -122t-67.5 -99.5t-100.5 -67t-124 -24.5z" />
    <glyph glyph-name="k" unicode="k" horiz-adv-x="942" 
d="M704 624h76l-153 -315l153 -309h-76l-140 278h-227v63h227zM245 0h-70v624h70v-624z" />
    <glyph glyph-name="l" unicode="l" horiz-adv-x="822" 
d="M175 0h475v63h-405v561h-70v-624z" />
    <glyph glyph-name="m" unicode="m" horiz-adv-x="1093" 
d="M245 0h-70v624h120l249 -510l252 510h122v-624h-70v572l-304 -605l-299 600v-567z" />
    <glyph glyph-name="n" unicode="n" horiz-adv-x="932" 
d="M245 0h-70v624h117l395 -565v565h70v-624h-110l-402 566v-566z" />
    <glyph glyph-name="o" unicode="o" 
d="M229 311q0 -36 10.5 -70t29.5 -63.5t45.5 -53.5t58.5 -39l-44 -55q-38 20 -69 49.5t-52.5 66.5t-33.5 79t-12 87q0 65 25 122.5t67.5 100t100.5 67.5t124 25t124 -25t100.5 -67.5t67.5 -100t25 -122.5q0 -46 -12.5 -88.5t-35.5 -79t-55 -66t-71 -48.5l-37 56
q31 15 58 38.5t46 53t30 63.5t11 70q0 49 -20 94.5t-54 79.5t-79.5 54.5t-96.5 20.5t-97 -20.5t-80 -54.5t-54 -79.5t-20 -94.5z" />
    <glyph glyph-name="p" unicode="p" horiz-adv-x="891" 
d="M175 0v624h395q31 0 59 -14.5t49 -39t33.5 -58.5t12.5 -73q0 -35 -12 -66.5t-33 -56t-48.5 -39t-58.5 -14.5h-105v63h93q24 0 41 11t28.5 28t16.5 37t5 38q0 20 -6.5 41.5t-18.5 39t-29.5 29t-39.5 11.5h-312v-561h-70z" />
    <glyph glyph-name="q" unicode="q" 
d="M162 311q0 65 25 122.5t67.5 100t100.5 67.5t124 25t124 -25t100.5 -67.5t67.5 -100t25 -122.5q0 -60 -20.5 -111.5t-55.5 -93.5l69 -69l-62 -47l-118 109q55 33 88 89t33 122q0 49 -20 94.5t-54 79.5t-79.5 54.5t-96.5 20.5t-97 -20.5t-80 -54.5t-54 -79.5t-20 -94.5
q0 -50 20 -94.5t54 -78t79.5 -53.5t96.5 -20h13q13 0 14 1l58 -57q-20 -6 -41.5 -8.5t-43.5 -2.5q-66 0 -124 24.5t-100.5 67.5t-67.5 100t-25 122z" />
    <glyph glyph-name="r" unicode="r" horiz-adv-x="891" 
d="M631 0l-167 326h96q24 0 41 11t28.5 28t16.5 37t5 38q0 20 -6.5 41.5t-18.5 39t-29.5 29t-39.5 11.5h-312v-561h-70v624h395q31 0 59 -14.5t49 -39t33.5 -58.5t12.5 -73q0 -35 -12 -66.5t-32.5 -56t-48 -39t-58.5 -14.5l133 -263h-75z" />
    <glyph glyph-name="s" unicode="s" horiz-adv-x="883" 
d="M706 561h-359q-54 0 -81 -31t-27 -79q0 -42 19 -70t61 -36v-65q-31 0 -58.5 14t-48.5 37t-33 54t-12 66q0 39 12 71t33 54.5t49 35t60 12.5h385v-63zM177 63h359q54 0 81 31t27 79q0 42 -19 69.5t-61 35.5v66q31 0 58.5 -14t48.5 -37t33 -54.5t12 -65.5q0 -39 -12.5 -71
t-33.5 -54.5t-49 -35t-59 -12.5h-385v63z" />
    <glyph glyph-name="t" unicode="t" horiz-adv-x="879" 
d="M172 624h535v-63h-233v-561h-70v561h-232v63z" />
    <glyph glyph-name="u" unicode="u" horiz-adv-x="985" 
d="M175 310v314h70v-345q6 -45 28 -84t55 -68.5t75.5 -46t89.5 -16.5t89.5 16.5t75.5 46t54.5 68.5t27.5 84v345h70v-314q0 -65 -25 -122t-67.5 -99.5t-100.5 -67t-124 -24.5t-124 24.5t-101 67t-68 99.5t-25 122z" />
    <glyph glyph-name="v" unicode="v" horiz-adv-x="951" 
d="M804 624l-330 -657l-327 657h80l247 -507l250 507h80z" />
    <glyph glyph-name="w" unicode="w" horiz-adv-x="1165" 
d="M941 624h77l-310 -643l-127 272l-131 -272l-303 643h77l226 -480l131 273l129 -273z" />
    <glyph glyph-name="x" unicode="x" horiz-adv-x="915" 
d="M152 624h76l156 -315l-156 -309h-76l153 309zM687 624h76l-153 -315l153 -309h-76l-156 309z" />
    <glyph glyph-name="y" unicode="y" horiz-adv-x="905" 
d="M417 0v220l-270 404h84l219 -321l224 321h84l-271 -399v-225h-70z" />
    <glyph glyph-name="z" unicode="z" horiz-adv-x="895" 
d="M172 0h550v63h-416l169 229h-85zM530 365l193 259h-551v-63h418l-146 -196h86z" />
    <glyph glyph-name="braceleft" unicode="{" horiz-adv-x="883" 
d="M706 624h-385q-32 0 -60 -12.5t-49 -35t-33 -54.5t-12 -71q0 -35 12 -66t33 -54t48.5 -37t58.5 -14h245q42 -9 61 -37t19 -70q0 -48 -27 -79t-81 -31h-359v-63h385q31 0 59 12.5t49 35t33.5 54.5t12.5 71q0 34 -12 65.5t-33 54.5t-48.5 37t-58.5 14h-245q-42 8 -61 36.5
t-19 70.5q0 48 27 79t81 31h359v63z" />
    <glyph glyph-name="bar" unicode="|" horiz-adv-x="420" 
d="M175 -174h70v972h-70v-972z" />
    <glyph glyph-name="braceright" unicode="}" 
d="M447 301v-362h63v362h-63zM229 311q0 49 20 94.5t54 79.5t80 54.5t97 20.5t96.5 -20.5t79.5 -54.5t54 -79.5t20 -94.5q0 -36 -11 -70t-30 -63.5t-46 -53t-58 -38.5l37 -56q39 19 71 48.5t55 66t35.5 79t12.5 88.5q0 65 -25 122.5t-67.5 100t-100.5 67.5t-124 25t-124 -25
t-100.5 -67.5t-67.5 -100t-25 -122.5q0 -45 12 -87t33.5 -79t52.5 -66.5t69 -49.5l44 55q-32 15 -58.5 39t-45.5 53.5t-29.5 63.5t-10.5 70z" />
    <glyph glyph-name="asciitilde" unicode="~" horiz-adv-x="647" 
d="M213 266l-56 41l130 86l72 -50l75 49l56 -43l-131 -84l-73 48z" />
    <glyph glyph-name="FL0127" horiz-adv-x="191" 
 />
    <glyph glyph-name="FL20ACh" unicode="&#x20ac;" horiz-adv-x="1065" 
d="M172 200h141q17 -45 46.5 -82t68 -64t85 -42t97.5 -15q88 0 157.5 40.5t111.5 106.5l-48 49q-16 -29 -39.5 -53t-52 -41t-61.5 -26.5t-68 -9.5q-36 0 -69.5 10t-62 28.5t-52 43.5t-39.5 55h292v72h-317q-3 19 -3 39q0 19 3 39h317v72h-292q16 30 39.5 55.5t52.5 43.5
t62.5 28.5t69.5 10.5q38 0 73.5 -11.5t65.5 -32.5t53.5 -49t38.5 -61l56 36q-19 40 -48.5 74t-66.5 58.5t-81 38t-92 13.5q-51 0 -97.5 -15t-85.5 -42t-68 -64.5t-46 -82.5h-141v-72h123q-1 -15 -1.5 -23t-0.5 -15q0 -11 0.5 -20.5t1.5 -19.5h-123v-72z" />
    <glyph glyph-name="FL201Ah" unicode="&#x201a;" horiz-adv-x="444" 
d="M179 -63h67q16 20 24 50t8 63q0 23 -16.5 39.5t-39.5 16.5t-39 -15.5t-16 -38.5q0 -18 11.5 -32.5t27.5 -19.5q-2 -15 -8.5 -32t-18.5 -31z" />
    <glyph glyph-name="FL00AFh" unicode="&#x192;" horiz-adv-x="819" 
d="M172 624v-63h202v-561h70v561h203v63h-475z" />
    <glyph glyph-name="FL201Eh" unicode="&#x201e;" horiz-adv-x="612" 
d="M346 -63h67q16 20 24 50t8 63q0 23 -16.5 39.5t-39.5 16.5t-39 -15.5t-16 -38.5q0 -18 11.5 -32.5t27.5 -19.5q-2 -15 -8.5 -32t-18.5 -31zM179 -63h67q16 20 24 50t8 63q0 23 -16.5 39.5t-39.5 16.5t-39 -15.5t-16 -38.5q0 -18 11.5 -32.5t27.5 -19.5q-2 -15 -8.5 -32
t-18.5 -31z" />
    <glyph glyph-name="FL2026h" unicode="&#x2026;" horiz-adv-x="844" 
d="M567 52q0 -23 16 -38.5t39 -15.5t39 15.5t16 38.5t-16 38.5t-39 15.5t-39 -15.5t-16 -38.5zM367 52q0 -23 16 -38.5t39 -15.5t39 15.5t16 38.5t-16 38.5t-39 15.5t-39 -15.5t-16 -38.5zM167 52q0 -23 16 -38.5t39 -15.5t39 15.5t16 38.5t-16 38.5t-39 15.5t-39 -15.5
t-16 -38.5z" />
    <glyph glyph-name="FL2020h" unicode="&#x2020;" horiz-adv-x="709" 
d="M172 398h147v-398h70v398h148v72h-148v154h-70v-154h-147v-72z" />
    <glyph glyph-name="FL2021h" unicode="&#x2021;" horiz-adv-x="709" 
d="M172 398h147v-174h-147v-72h147v-152h70v152h148v72h-148v174h148v72h-148v154h-70v-154h-147v-72z" />
    <glyph glyph-name="FL02C6h" unicode="&#x2c6;" horiz-adv-x="470" 
d="M363 716l-128 91l-128 -91l57 -45l71 50l71 -50z" />
    <glyph glyph-name="FL2030h" unicode="&#x2030;" horiz-adv-x="1391" 
d="M332 0h75l314 624h-75zM628 155q0 19 7.5 37t21 31t31 21t37.5 8q21 0 38.5 -8t31 -21t21 -31t7.5 -37q0 -20 -8 -37t-21.5 -30t-31.5 -20.5t-37 -7.5q-20 0 -38 7.5t-31 20.5t-20.5 30t-7.5 37zM566 156q0 -33 12.5 -61.5t34.5 -50t50.5 -34t61.5 -12.5t62 12.5t50 34
t33.5 50t12.5 61.5q0 32 -12.5 60.5t-33.5 50t-50 34t-62 12.5t-61.5 -12.5t-50.5 -34t-34.5 -50t-12.5 -60.5zM229 468q0 19 7.5 37t21 31t31 21t37.5 8q21 0 38.5 -8t31 -21t21 -31t7.5 -37q0 -20 -8 -37t-21.5 -30t-31.5 -20.5t-37 -7.5q-20 0 -38 7.5t-31 20.5t-20.5 30
t-7.5 37zM167 469q0 -33 12.5 -61.5t34.5 -50t50.5 -34t61.5 -12.5t62 12.5t50 34t33.5 50t12.5 61.5q0 32 -12.5 60.5t-33.5 50t-50 34t-62 12.5t-61.5 -12.5t-50.5 -34t-34.5 -50t-12.5 -60.5zM969 155q0 19 7.5 37t21 31t31 21t37.5 8q21 0 38.5 -8t31 -21t21 -31
t7.5 -37q0 -20 -8 -37t-21.5 -30t-31.5 -20.5t-37 -7.5q-20 0 -38 7.5t-31 20.5t-20.5 30t-7.5 37zM907 156q0 -33 12.5 -61.5t34.5 -50t50.5 -34t61.5 -12.5t62 12.5t50 34t33.5 50t12.5 61.5q0 32 -12.5 60.5t-33.5 50t-50 34t-62 12.5t-61.5 -12.5t-50.5 -34t-34.5 -50
t-12.5 -60.5z" />
    <glyph glyph-name="FL0160h" unicode="&#x160;" horiz-adv-x="883" 
d="M313 762l128 -91l128 91l-57 45l-71 -50l-71 50zM706 561v63h-385q-32 0 -60 -12.5t-49 -35t-33 -54.5t-12 -71q0 -35 12 -66t33 -54t48.5 -37t58.5 -14v65q-42 8 -61 36t-19 70q0 48 27 79t81 31h359zM177 63v-63h385q31 0 59 12.5t49 35t33.5 54.5t12.5 71
q0 34 -12 65.5t-33 54.5t-48.5 37t-58.5 14v-66q42 -8 61 -35.5t19 -69.5q0 -48 -27 -79t-81 -31h-359z" />
    <glyph glyph-name="FL2039h" unicode="&#x2039;" horiz-adv-x="440" 
d="M243 457l-91 -128l91 -128l45 57l-50 71l50 71z" />
    <glyph glyph-name="FL0152h" unicode="&#x152;" horiz-adv-x="1348" 
d="M162 312q0 -65 25 -122.5t67.5 -100t100.5 -67.5t124 -25t121 23t98 63v-83h475v63h-405v498h405v63h-475v-86q-43 42 -99 65t-120 23q-66 0 -124 -24.5t-100.5 -67.5t-67.5 -100t-25 -122zM479 63q-51 0 -97 20t-80 54.5t-54 79t-20 94.5q0 49 20 94.5t54.5 79.5
t80.5 54.5t97 20.5q69 0 126.5 -36.5t91.5 -92.5v-242q-33 -57 -91.5 -91.5t-127.5 -34.5zM866 326v-63h299v63h-299z" />
    <glyph glyph-name="FL017Dh" unicode="&#x17d;" horiz-adv-x="895" 
d="M319 762l128 -91l128 91l-57 45l-71 -50l-71 50zM172 0h550v63h-416l417 561h-551v-63h418z" />
    <glyph glyph-name="FL2018h" unicode="&#x2018;" horiz-adv-x="445" 
d="M267 625h-67q-16 -20 -24.5 -49.5t-8.5 -62.5q0 -23 17 -40t40 -17t39 15.5t16 38.5q0 18 -11.5 32.5t-27.5 19.5q2 15 8.5 32t18.5 31z" />
    <glyph glyph-name="FL2019h" unicode="&#x2019;" horiz-adv-x="445" 
d="M179 457h67q16 20 24.5 49.5t8.5 62.5q0 23 -17 40t-40 17t-39 -15.5t-16 -38.5q0 -18 11.5 -32.5t27.5 -19.5q-2 -15 -8.5 -32t-18.5 -31z" />
    <glyph glyph-name="FL201Ch" unicode="&#x201c;" horiz-adv-x="613" 
d="M267 625h-67q-16 -20 -24.5 -49.5t-8.5 -62.5q0 -23 17 -40t40 -17t39 15.5t16 38.5q0 18 -11.5 32.5t-27.5 19.5q2 15 8.5 32t18.5 31zM434 625h-67q-16 -20 -24.5 -49.5t-8.5 -62.5q0 -23 17 -40t40 -17t39 15.5t16 38.5q0 18 -11.5 32.5t-27.5 19.5q2 15 8.5 32
t18.5 31z" />
    <glyph glyph-name="FL201Dh" unicode="&#x201d;" horiz-adv-x="612" 
d="M346 457h67q16 20 24.5 49.5t8.5 62.5q0 23 -17 40t-40 17t-39 -15.5t-16 -38.5q0 -18 11.5 -32.5t27.5 -19.5q-2 -15 -8.5 -32t-18.5 -31zM179 457h67q16 20 24.5 49.5t8.5 62.5q0 23 -17 40t-40 17t-39 -15.5t-16 -38.5q0 -18 11.5 -32.5t27.5 -19.5q-2 -15 -8.5 -32
t-18.5 -31z" />
    <glyph glyph-name="FL2022h" unicode="&#x2022;" 
d="M162 311q0 -65 25 -122t67.5 -100t100.5 -67.5t124 -24.5t124 24.5t100.5 67.5t67.5 100t25 122t-25 122t-67.5 100t-100.5 67.5t-124 24.5t-124 -24.5t-100.5 -67.5t-67.5 -100t-25 -122z" />
    <glyph glyph-name="FL2013h" unicode="&#x2013;" horiz-adv-x="709" 
d="M172 296v64h365v-64h-365z" />
    <glyph glyph-name="FL2014h" unicode="&#x2014;" horiz-adv-x="879" 
d="M172 296v64h535v-64h-535z" />
    <glyph glyph-name="FL02DCh" unicode="&#x2dc;" horiz-adv-x="432" 
d="M107 671l70 49l72 -50l128 91l-57 45l-71 -50l-71 51l-128 -91z" />
    <glyph glyph-name="FL2122h" unicode="&#x2122;" horiz-adv-x="585" 
d="M198 645v-113h21v113h46v21h-113v-21h46zM287 662v-130h14v87l7 7l32 -86q3 -6 4.5 -7t3.5 -1h4q2 0 4.5 2.5t7.5 12t12 29t18 53.5l5 -10v-87h14v134h-5q-7 0 -11 -1.5t-8 -6.5t-9.5 -15t-15.5 -26q-1 -1 -1 -5q-3 -13 -5.5 -21.5t-8.5 -19.5l-18 58q-4 13 -16 25.5
t-16 12.5q-2 0 -2.5 -0.5l-0.5 -0.5l3 -1q0 -2 -6 -2q-2 0 -3.5 -0.5t-2.5 -0.5z" />
    <glyph glyph-name="FL0161h" unicode="&#x161;" horiz-adv-x="883" 
d="M313 762l128 -91l128 91l-57 45l-71 -50l-71 50zM706 561v63h-385q-32 0 -60 -12.5t-49 -35t-33 -54.5t-12 -71q0 -35 12 -66t33 -54t48.5 -37t58.5 -14v65q-42 8 -61 36t-19 70q0 48 27 79t81 31h359zM177 63v-63h385q31 0 59 12.5t49 35t33.5 54.5t12.5 71
q0 34 -12 65.5t-33 54.5t-48.5 37t-58.5 14v-66q42 -8 61 -35.5t19 -69.5q0 -48 -27 -79t-81 -31h-359z" />
    <glyph glyph-name="FL203Ah" unicode="&#x203a;" horiz-adv-x="440" 
d="M197 457l91 -128l-91 -128l-45 57l50 71l-50 71z" />
    <glyph glyph-name="FL0153h" unicode="&#x153;" horiz-adv-x="1348" 
d="M162 312q0 -65 25 -122.5t67.5 -100t100.5 -67.5t124 -25t121 23t98 63v-83h475v63h-405v498h405v63h-475v-86q-43 42 -99 65t-120 23q-66 0 -124 -24.5t-100.5 -67.5t-67.5 -100t-25 -122zM479 63q-51 0 -97 20t-80 54.5t-54 79t-20 94.5q0 49 20 94.5t54.5 79.5
t80.5 54.5t97 20.5q69 0 126.5 -36.5t91.5 -92.5v-242q-33 -57 -91.5 -91.5t-127.5 -34.5zM866 326v-63h299v63h-299z" />
    <glyph glyph-name="FL017Eh" unicode="&#x17e;" horiz-adv-x="895" 
d="M447 671l-128 91l57 45l71 -50l71 50l57 -45zM172 0l218 292h85l-169 -229h416v-63h-550zM530 365h-86l146 196h-418v63h551z" />
    <glyph glyph-name="FL0178h" unicode="&#x178;" horiz-adv-x="905" 
d="M305 739q0 -23 16 -38.5t39 -15.5t39 15.5t16 38.5t-16 38.5t-39 15.5t-39 -15.5t-16 -38.5zM489 739q0 -23 16 -38.5t39 -15.5t39 15.5t16 38.5t-16 38.5t-39 15.5t-39 -15.5t-16 -38.5zM417 0h70v225l271 399h-84l-224 -321l-219 321h-84l270 -404v-220z" />
    <glyph glyph-name="FL00A1h" unicode="&#xa1;" horiz-adv-x="420" 
d="M155 572q0 23 16 38.5t39 15.5t39 -15.5t16 -38.5t-16 -38.5t-39 -15.5t-39 15.5t-16 38.5zM245 425v-425h-70v425h70z" />
    <glyph glyph-name="FL00A2h" unicode="&#xa2;" horiz-adv-x="934" 
d="M514 748v-124q85 -10 151 -58.5t102 -123.5l-56 -36q-27 60 -79 100.5t-118 50.5v-492q60 9 108.5 43t77.5 85l48 -49q-38 -60 -98 -98.5t-136 -46.5v-127h-70v127q-60 6 -111.5 33t-89.5 69t-59.5 96t-21.5 115q0 60 21.5 114t59.5 96t89.5 69t111.5 33v124h70zM228 311
q0 -46 16.5 -87.5t46 -74.5t69 -55t84.5 -29v492q-45 -7 -84.5 -29.5t-69 -55.5t-46 -74.5t-16.5 -86.5z" />
    <glyph glyph-name="FL00A3h" unicode="&#xa3;" horiz-adv-x="823" 
d="M50 281v63h154q-13 19 -22.5 43t-9.5 52q0 39 12.5 73t33.5 58.5t49 39t59 14.5h104v-63h-91q-22 0 -39.5 -11t-29.5 -28.5t-18.5 -39t-6.5 -41.5q0 -25 17.5 -52.5t40.5 -44.5h226v-63h-225q-24 -18 -41 -45t-17 -53q0 -20 6 -41.5t17.5 -39t28.5 -28.5t39 -11h319v-63
h-606v63h160q-18 24 -28 55t-10 67q0 28 11 52t25 44h-158z" />
    <glyph glyph-name="FL00A4h" unicode="&#xa4;" horiz-adv-x="915" 
d="M299 320v-22l-147 -298h76l106 211q22 -27 54 -43t70 -16t69.5 16t53.5 43l106 -211h76l-148 298q0 2 0.5 3.5t0.5 3.5t-0.5 6t-0.5 9l148 304h-76l-106 -216q-22 27 -53.5 43t-69.5 16t-69.5 -16.5t-54.5 -42.5l-106 216h-76zM361 309q0 19 7.5 37t21 31t31 21t37.5 8
q21 0 38.5 -8t31 -21t21 -31t7.5 -37q0 -20 -8 -37t-21.5 -30t-31.5 -20.5t-37 -7.5q-20 0 -38 7.5t-31 20.5t-20.5 30t-7.5 37z" />
    <glyph glyph-name="FL00A5h" unicode="&#xa5;" horiz-adv-x="905" 
d="M259 187h158v-54h-158v-64h158v-69h70v69h159v64h-159v54h159v64h-142l254 373h-84l-224 -321l-219 321h-84l249 -373h-137v-64z" />
    <glyph glyph-name="FL00A6h" unicode="&#xa6;" horiz-adv-x="420" 
d="M245 292v-466h-70v466h70zM175 798h70v-433h-70v433z" />
    <glyph glyph-name="FL00A7h" unicode="&#xa7;" horiz-adv-x="915" 
d="M763 624h-76l-106 -216q-22 27 -53.5 43t-69.5 16q-33 0 -61.5 -12.5t-50.5 -34t-34.5 -50t-12.5 -60.5v-12l-147 -298h76l106 211q22 -27 54 -43t70 -16q33 0 62 12.5t50 34t33.5 50t12.5 61.5l-1 10zM361 309q0 19 7.5 37t21 31t31 21t37.5 8q21 0 38.5 -8t31 -21
t21 -31t7.5 -37q0 -20 -8 -37t-21.5 -30t-31.5 -20.5t-37 -7.5q-20 0 -38 7.5t-31 20.5t-20.5 30t-7.5 37z" />
    <glyph glyph-name="FL00A8h" unicode="&#xa8;" horiz-adv-x="508" 
d="M107 739q0 -23 16 -38.5t39 -15.5t39 15.5t16 38.5t-16 38.5t-39 15.5t-39 -15.5t-16 -38.5zM291 739q0 -23 16 -38.5t39 -15.5t39 15.5t16 38.5t-16 38.5t-39 15.5t-39 -15.5t-16 -38.5z" />
    <glyph glyph-name="FL00A9h" unicode="&#xa9;" horiz-adv-x="517" 
d="M259 666q13 0 25.5 -5t23 -12t18 -15t10.5 -14q14 -23 14 -45q0 -10 -4 -21t-10 -24q-9 -14 -29 -29.5t-48 -15.5q-11 0 -22.5 3.5t-23.5 8.5q-12 9 -18 15t-15 18q-13 22 -13 45q0 18 8 34.5t20.5 29t29 20t34.5 7.5zM259 652q-43 0 -66 -38q-10 -16 -10 -39
q0 -20 10 -36q8 -17 27 -29q10 -6 21 -7.5t16 -1.5h2q8 0 37 9q18 10 28.5 29t10.5 36v4q0 13 -6.5 26.5t-17 23.5t-23.5 16.5t-26 6.5h-3zM288 562l14 -5q-9 -34 -43 -34q-48 0 -48 52t48 52q34 0 41 -28l-15 -4q-9 19 -26 19q-32 0 -32 -39q0 -36 31 -36q22 0 30 23z" />
    <glyph glyph-name="FL00AAh" unicode="&#xaa;" horiz-adv-x="951" 
d="M804 0h-78l-76 153h-242l27 63h183l-144 291l-249 -507h-78l327 657z" />
    <glyph glyph-name="FL00ABh" unicode="&#xab;" horiz-adv-x="612" 
d="M415 457l-91 -128l91 -128l45 57l-50 71l50 71zM243 457l-91 -128l91 -128l45 57l-50 71l50 71z" />
    <glyph glyph-name="FL00ACh" unicode="&#xac;" horiz-adv-x="712" 
d="M172 296v64h365v-214h-64v150h-301z" />
    <glyph glyph-name="FL00B2h" unicode="&#xad;" horiz-adv-x="634" 
d="M172 296v63h290v-63h-290z" />
    <glyph glyph-name="FL00AEh" unicode="&#xae;" horiz-adv-x="517" 
d="M259 666q24 0 43 -13q21 -10 34.5 -32.5t13.5 -43.5v-2q0 -19 -15 -46q-4 -10 -13.5 -18t-20.5 -14t-22 -9t-18 -3h-2q-51 0 -80 44q-12 21 -12 41v5q0 12 2 19t6 15q10 20 18.5 29.5t19.5 14.5q19 13 46 13zM259 651q-43 0 -66 -38q-5 -9 -8 -17t-3 -17v-4l2 -10
q2 -5 4 -12t4 -15q0 -4 7 -10.5t17 -12.5t21 -10.5t19 -4.5h3q18 0 30.5 7t33.5 31q7 14 9.5 25.5l2.5 11.5l-1 4q0 13 -6 26t-16.5 23.5t-23.5 16.5t-26 6h-3zM219 525v98h32q21 0 26 -5q4 -2 6.5 -3.5t4.5 -3.5q6 -9 6 -14q0 -26 -29 -28q9 -4 12 -8.5l11 -16.5l12 -19
h-20l-7 16q-14 18 -18 21q-4 4 -11 4h-10v-41h-15zM234 578h24q19 0 19 14q0 10 -10 17h-33v-31z" />
    <glyph glyph-name="FL0667h" unicode="&#xaf;" horiz-adv-x="845" 
d="M167 561v64h511v-64h-511z" />
    <glyph glyph-name="FL00B0h" unicode="&#xb0;" horiz-adv-x="325" 
d="M107 739q0 23 16 38.5t39 15.5t39 -15.5t16 -38.5t-16 -38.5t-39 -15.5t-39 15.5t-16 38.5zM141 739q0 -11 6 -16.5t15 -5.5q8 0 14 5.5t6 16.5q0 8 -6 13t-14 5q-9 0 -15 -5t-6 -13z" />
    <glyph glyph-name="FL00B1h" unicode="&#xb1;" horiz-adv-x="709" 
d="M172 296v64h150v151h64v-151h151v-64h-151v-150h-64v150h-150zM172 0v64h365v-64h-365z" />
    <glyph glyph-name="FL00B3h" unicode="&#xb2;" horiz-adv-x="609" 
d="M438 411v-59h-271v93q0 18 8 35t21.5 30t31 20.5t37.5 7.5v-58q-35 -8 -35 -35v-34h208zM172 604v60h187q33 0 58 -26t25 -68q0 -18 -8 -35t-21 -29.5t-31 -20t-37 -7.5v57q35 8 35 35q0 15 -8 24.5t-25 9.5h-175z" />
    <glyph glyph-name="FL00B5h" unicode="&#xb3;" horiz-adv-x="581" 
d="M272 538v-60h64q7 -6 11.5 -14t4.5 -15q0 -13 -6.5 -25.5t-18.5 -12.5h-155v-59h160q33 0 57.5 28t24.5 70q0 17 -6.5 31t-15.5 25q9 11 15.5 25.5t6.5 33.5q0 42 -24.5 70.5t-57.5 28.5h-160v-60h154q13 0 20 -12.5t7 -25.5q0 -7 -5 -15t-11 -13h-65z" />
    <glyph glyph-name="FL00B4h" unicode="&#xb4;" horiz-adv-x="364" 
d="M257 756l-60 51l-90 -89l57 -47z" />
    <glyph glyph-name="FL00B6h" unicode="&#xb5;" horiz-adv-x="985" 
d="M175 -174v798h70v-345q6 -45 28 -84.5t55 -68.5t75.5 -46t89.5 -17t89.5 17t75.5 46t54.5 68.5t27.5 84.5v345h70v-314q0 -65 -25 -122t-67.5 -99.5t-100.5 -67t-124 -24.5q-76 0 -139.5 31t-108.5 85v-287h-70z" />
    <glyph glyph-name="FL00BDh" unicode="&#xb6;" horiz-adv-x="830" 
d="M427 -81h-75v344q-53 0 -88.5 14.5t-57 39t-30.5 56t-9 66.5q0 39 12.5 73t33.5 58.5t49 39t59 14.5h334v-705h-70v642h-158v-642z" />
    <glyph glyph-name="FL00B7h" unicode="&#xb7;" horiz-adv-x="444" 
d="M167 329q0 -23 16 -38.5t39 -15.5t39 15.5t16 38.5t-16 38.5t-39 15.5t-39 -15.5t-16 -38.5z" />
    <glyph glyph-name="FL00B9h" unicode="&#xb8;" horiz-adv-x="391" 
d="M161 1h74q-4 -29 -12.5 -50.5t-23.5 -39t-37.5 -32.5t-54.5 -31l-37 56q24 11 40.5 21t27 21t16 24t7.5 31z" />
    <glyph glyph-name="FL00BCh" unicode="&#xb9;" horiz-adv-x="459" 
d="M172 664v-62h42v-250h70v312h-112z" />
    <glyph glyph-name="FL00BAh" unicode="&#xba;" horiz-adv-x="651" 
d="M229 509q0 19 7.5 37t21 31t31 21t37.5 8q21 0 38.5 -8t31 -21t21 -31t7.5 -37q0 -20 -8 -37t-21.5 -30t-31.5 -20.5t-37 -7.5q-20 0 -38 7.5t-31 20.5t-20.5 30t-7.5 37zM167 510q0 -33 12.5 -61.5t34.5 -50t50.5 -34t61.5 -12.5t62 12.5t50 34t33.5 50t12.5 61.5
q0 32 -12.5 60.5t-33.5 50t-50 34t-62 12.5t-61.5 -12.5t-50.5 -34t-34.5 -50t-12.5 -60.5z" />
    <glyph glyph-name="FL00BBh" unicode="&#xbb;" horiz-adv-x="612" 
d="M197 457l91 -128l-91 -128l-45 57l50 71l-50 71zM369 457l91 -128l-91 -128l-45 57l50 71l-50 71z" />
    <glyph glyph-name="FL0385h" unicode="&#xbc;" horiz-adv-x="940" 
d="M172 562v62h112v-312h-70v250h-42zM273 0h-75l314 624h75zM496 312h70v-140h79v-63h-149v203zM765 0h-70v312h70v-312z" />
    <glyph glyph-name="FL00BEh" unicode="&#xbd;" horiz-adv-x="938" 
d="M496 312v-60h175q17 0 25 -9.5t8 -24.5q0 -27 -35 -35v-57q19 0 37 7.5t31 20t21 29.5t8 35q0 42 -25 68t-58 26h-187zM762 0v59h-208v34q0 27 35 35v58q-20 0 -37.5 -7.5t-31 -20.5t-21.5 -30t-8 -35v-93h271zM198 0h75l314 624h-75zM172 624v-62h42v-250h70v312h-112z
" />
    <glyph glyph-name="FL03A1h" unicode="&#xbe;" horiz-adv-x="1011" 
d="M766 0h70v312h-70v-312zM637 312h-70v-203h149v63h-79v140zM275 0h75l314 624h-75zM272 498v-60h64q7 -6 11.5 -14t4.5 -15q0 -13 -6.5 -25.5t-18.5 -12.5h-155v-59h160q33 0 57.5 28t24.5 70q0 17 -6.5 31t-15.5 25q9 11 15.5 25.5t6.5 33.5q0 42 -24.5 70.5t-57.5 28.5
h-160v-60h154q13 0 20 -12.5t7 -25.5q0 -7 -5 -15t-11 -13h-65z" />
    <glyph glyph-name="FL00BFh" unicode="&#xbf;" horiz-adv-x="878" 
d="M706 63h-359q-54 0 -81 31t-27 79q0 42 19 70t61 36v65q-31 0 -58.5 -14t-48.5 -37t-33 -54.5t-12 -65.5q0 -39 12.5 -71t33.5 -54.5t49 -35t59 -12.5h385v63zM644 425h-73v-27q-19 -42 -71 -52v-66q51 0 90 33.5t54 84.5v27zM662 572q0 23 -16 38.5t-39 15.5t-39 -15.5
t-16 -38.5t16 -38.5t39 -15.5t39 15.5t16 38.5z" />
    <glyph glyph-name="FL00C0h" unicode="&#xc0;" horiz-adv-x="951" 
d="M483 807l60 -51l-93 -85l-57 47zM804 0h-78l-252 507l-217 -444h294l43 -63h-447l327 657z" />
    <glyph glyph-name="FL00C1h" unicode="&#xc1;" horiz-adv-x="951" 
d="M409 756l60 51l90 -89l-57 -47zM804 0h-78l-252 507l-217 -444h294l43 -63h-447l327 657z" />
    <glyph glyph-name="FL00C2h" unicode="&#xc2;" horiz-adv-x="951" 
d="M348 716l128 91l128 -91l-57 -45l-71 50l-71 -50zM804 0h-78l-252 507l-217 -444h294l43 -63h-447l327 657z" />
    <glyph glyph-name="FL00C3h" unicode="&#xc3;" horiz-adv-x="951" 
d="M726 0h78l-330 657l-327 -657h447l-43 63h-294l217 444zM369 671l70 49l72 -50l128 91l-57 45l-71 -50l-71 51l-128 -91z" />
    <glyph glyph-name="FL00C4h" unicode="&#xc4;" horiz-adv-x="951" 
d="M623 739q0 -23 -16 -38.5t-39 -15.5t-39 15.5t-16 38.5t16 38.5t39 15.5t39 -15.5t16 -38.5zM439 739q0 -23 -16 -38.5t-39 -15.5t-39 15.5t-16 38.5t16 38.5t39 15.5t39 -15.5t16 -38.5zM804 0h-78l-252 507l-217 -444h294l43 -63h-447l327 657z" />
    <glyph glyph-name="FL00C5h" unicode="&#xc5;" horiz-adv-x="951" 
d="M804 0h-78l-252 507l-217 -444h294l43 -63h-447l327 657zM420 739q0 23 16 38.5t39 15.5t39 -15.5t16 -38.5t-16 -38.5t-39 -15.5t-39 15.5t-16 38.5zM454 739q0 -11 6 -16.5t15 -5.5q8 0 14 5.5t6 16.5q0 8 -6 13t-14 5q-9 0 -15 -5t-6 -13z" />
    <glyph glyph-name="FL00C6h" unicode="&#xc6;" horiz-adv-x="1376" 
d="M726 0l-252 507l-217 -444h294l43 -63h-447l327 657l252 -502v469h475v-63h-405v-498h405v-63h-475zM1193 326v-63h-299v63h299z" />
    <glyph glyph-name="FL00C7h" unicode="&#xc7;" horiz-adv-x="934" 
d="M162 312q0 65 25 122t67.5 100t100.5 67.5t124 24.5q48 0 92 -13.5t81 -38t66.5 -58.5t48.5 -74l-56 -36q-15 33 -38.5 61t-53.5 49t-65.5 32.5t-73.5 11.5q-51 0 -97 -20.5t-80.5 -54.5t-54.5 -79.5t-20 -94.5q0 -50 20 -94.5t54 -79t80 -54.5t97 -20q35 0 68 9.5
t61.5 26.5t52 41t39.5 53l48 -49q-35 -57 -90.5 -94.5t-124.5 -48.5q-4 -29 -12.5 -50.5t-23.5 -39t-37.5 -32.5t-54.5 -31l-37 56q24 11 40.5 20.5t27 20t16 23t7.5 30.5q-62 3 -116.5 29t-94.5 68.5t-63 98t-23 118.5z" />
    <glyph glyph-name="FL00C8h" unicode="&#xc8;" horiz-adv-x="825" 
d="M397 807l-60 -51l93 -85l57 47zM175 624v-624h475v63h-405v498h405v63h-475zM642 263v63h-299v-63h299z" />
    <glyph glyph-name="FL00C9h" unicode="&#xc9;" horiz-adv-x="825" 
d="M487 756l-60 51l-90 -89l57 -47zM175 624v-624h475v63h-405v498h405v63h-475zM642 263v63h-299v-63h299z" />
    <glyph glyph-name="FL00CAh" unicode="&#xca;" horiz-adv-x="825" 
d="M343 263h299v63h-299v-63zM650 624h-475v-624h475v63h-405v498h405v63zM540 716l-128 91l-128 -91l57 -45l71 50l71 -50z" />
    <glyph glyph-name="FL00CBh" unicode="&#xcb;" horiz-adv-x="825" 
d="M265 739q0 -23 16 -38.5t39 -15.5t39 15.5t16 38.5t-16 38.5t-39 15.5t-39 -15.5t-16 -38.5zM449 739q0 -23 16 -38.5t39 -15.5t39 15.5t16 38.5t-16 38.5t-39 15.5t-39 -15.5t-16 -38.5zM175 624v-624h475v63h-405v498h405v63h-475zM642 263v63h-299v-63h299z" />
    <glyph glyph-name="FL00CCh" unicode="&#xcc;" horiz-adv-x="879" 
d="M424 807l-60 -51l93 -85l57 47zM172 624v-63h232v-498h-232v-63h535v63h-233v498h233v63h-535z" />
    <glyph glyph-name="FL00CDh" unicode="&#xcd;" horiz-adv-x="879" 
d="M514 756l-60 51l-90 -89l57 -47zM172 624v-63h232v-498h-232v-63h535v63h-233v498h233v63h-535z" />
    <glyph glyph-name="FL00CEh" unicode="&#xce;" horiz-adv-x="879" 
d="M567 716l-128 91l-128 -91l57 -45l71 50l71 -50zM172 624v-63h232v-498h-232v-63h535v63h-233v498h233v63h-535z" />
    <glyph glyph-name="FL00CFh" unicode="&#xcf;" horiz-adv-x="879" 
d="M292 739q0 -23 16 -38.5t39 -15.5t39 15.5t16 38.5t-16 38.5t-39 15.5t-39 -15.5t-16 -38.5zM476 739q0 -23 16 -38.5t39 -15.5t39 15.5t16 38.5t-16 38.5t-39 15.5t-39 -15.5t-16 -38.5zM172 624v-63h232v-498h-232v-63h535v63h-233v498h233v63h-535z" />
    <glyph glyph-name="FL00D0h" unicode="&#xd0;" horiz-adv-x="1039" 
d="M172 292v73h128v259h260q66 0 124 -24.5t100.5 -67.5t67.5 -100t25 -122t-27 -121.5t-71 -98.5t-100.5 -66t-116.5 -24h-262v292h-128zM370 559v-194h170v-73h-170v-228h190q46 0 91.5 19.5t81 53.5t57.5 78t22 94q0 49 -20 94.5t-54 80t-80 55t-97 20.5h-191z" />
    <glyph glyph-name="FL00D1h" unicode="&#xd1;" horiz-adv-x="932" 
d="M359 671l70 49l72 -50l128 91l-57 45l-71 -50l-71 51l-128 -91zM245 0v566l402 -566h110v624h-70v-565l-395 565h-117v-624h70z" />
    <glyph glyph-name="FL00D2h" unicode="&#xd2;" 
d="M464 807l-60 -51l93 -85l57 47zM228 311q0 49 20 94.5t54.5 79.5t80.5 54.5t97 20.5t97 -20.5t80 -54.5t54 -79.5t20 -94.5q0 -50 -20.5 -94.5t-55 -79t-80 -54.5t-96.5 -20t-97 20t-80 54.5t-54 79t-20 94.5zM162 312q0 -65 25 -122.5t67.5 -100t100.5 -67.5t124 -25
t124 25t100.5 67.5t67.5 100t25 122.5t-25 122t-67.5 100t-100.5 67.5t-124 24.5t-124 -24.5t-100.5 -67.5t-67.5 -100t-25 -122z" />
    <glyph glyph-name="FL00D3h" unicode="&#xd3;" 
d="M554 756l-60 51l-90 -89l57 -47zM228 311q0 49 20 94.5t54.5 79.5t80.5 54.5t97 20.5t97 -20.5t80 -54.5t54 -79.5t20 -94.5q0 -50 -20.5 -94.5t-55 -79t-80 -54.5t-96.5 -20t-97 20t-80 54.5t-54 79t-20 94.5zM162 312q0 -65 25 -122.5t67.5 -100t100.5 -67.5t124 -25
t124 25t100.5 67.5t67.5 100t25 122.5t-25 122t-67.5 100t-100.5 67.5t-124 24.5t-124 -24.5t-100.5 -67.5t-67.5 -100t-25 -122z" />
    <glyph glyph-name="FL00D4h" unicode="&#xd4;" 
d="M607 716l-128 91l-128 -91l57 -45l71 50l71 -50zM228 311q0 49 20 94.5t54.5 79.5t80.5 54.5t97 20.5t97 -20.5t80 -54.5t54 -79.5t20 -94.5q0 -50 -20.5 -94.5t-55 -79t-80 -54.5t-96.5 -20t-97 20t-80 54.5t-54 79t-20 94.5zM162 312q0 -65 25 -122.5t67.5 -100
t100.5 -67.5t124 -25t124 25t100.5 67.5t67.5 100t25 122.5t-25 122t-67.5 100t-100.5 67.5t-124 24.5t-124 -24.5t-100.5 -67.5t-67.5 -100t-25 -122z" />
    <glyph glyph-name="FL00D5h" unicode="&#xd5;" 
d="M372 671l70 49l72 -50l128 91l-57 45l-71 -50l-71 51l-128 -91zM228 311q0 49 20 94.5t54.5 79.5t80.5 54.5t97 20.5t97 -20.5t80 -54.5t54 -79.5t20 -94.5q0 -50 -20.5 -94.5t-55 -79t-80 -54.5t-96.5 -20t-97 20t-80 54.5t-54 79t-20 94.5zM162 312q0 -65 25 -122.5
t67.5 -100t100.5 -67.5t124 -25t124 25t100.5 67.5t67.5 100t25 122.5t-25 122t-67.5 100t-100.5 67.5t-124 24.5t-124 -24.5t-100.5 -67.5t-67.5 -100t-25 -122z" />
    <glyph glyph-name="FL00D6h" unicode="&#xd6;" 
d="M332 739q0 -23 16 -38.5t39 -15.5t39 15.5t16 38.5t-16 38.5t-39 15.5t-39 -15.5t-16 -38.5zM516 739q0 -23 16 -38.5t39 -15.5t39 15.5t16 38.5t-16 38.5t-39 15.5t-39 -15.5t-16 -38.5zM228 311q0 49 20 94.5t54.5 79.5t80.5 54.5t97 20.5t97 -20.5t80 -54.5t54 -79.5
t20 -94.5q0 -50 -20.5 -94.5t-55 -79t-80 -54.5t-96.5 -20t-97 20t-80 54.5t-54 79t-20 94.5zM162 312q0 -65 25 -122.5t67.5 -100t100.5 -67.5t124 -25t124 25t100.5 67.5t67.5 100t25 122.5t-25 122t-67.5 100t-100.5 67.5t-124 24.5t-124 -24.5t-100.5 -67.5t-67.5 -100
t-25 -122z" />
    <glyph glyph-name="FL00D7h" unicode="&#xd7;" horiz-adv-x="645" 
d="M167 225l103 103l-103 104l52 51l103 -103l104 104l52 -52l-104 -104l103 -103l-52 -52l-102 103l-104 -103z" />
    <glyph glyph-name="FL00D8h" unicode="&#xd8;" 
d="M796 312q0 -65 -25 -122.5t-67.5 -100t-100.5 -67.5t-124 -25t-124 25t-100.5 67.5t-67.5 100t-25 122.5t25 122t67.5 100t100.5 67.5t124 24.5t124 -24.5t100.5 -67.5t67.5 -100t25 -122zM730 311q0 49 -20 94.5t-54.5 79.5t-80.5 54.5t-97 20.5q-22 0 -42.5 -3.5
t-40.5 -11.5l224 -440q51 34 81 88.5t30 117.5zM227 311q0 -50 20.5 -94.5t55 -79t80 -54.5t96.5 -20q42 0 80 12l-223 439q-51 -35 -80 -88.5t-29 -114.5z" />
    <glyph glyph-name="FL00D9h" unicode="&#xd9;" horiz-adv-x="974" 
d="M472 807l-60 -51l93 -85l57 47zM175 310q0 -65 25 -122t68 -99.5t101 -67t124 -24.5t124 24.5t100.5 67t67.5 99.5t25 122v314h-70v-345q-6 -45 -27.5 -84.5t-54.5 -68.5t-75.5 -46t-89.5 -17t-89.5 17t-75.5 46t-55 68.5t-28 84.5v345h-70v-314z" />
    <glyph glyph-name="FL00DAh" unicode="&#xda;" horiz-adv-x="974" 
d="M562 756l-60 51l-90 -89l57 -47zM175 310q0 -65 25 -122t68 -99.5t101 -67t124 -24.5t124 24.5t100.5 67t67.5 99.5t25 122v314h-70v-345q-6 -45 -27.5 -84.5t-54.5 -68.5t-75.5 -46t-89.5 -17t-89.5 17t-75.5 46t-55 68.5t-28 84.5v345h-70v-314z" />
    <glyph glyph-name="FL00DBh" unicode="&#xdb;" horiz-adv-x="974" 
d="M615 716l-128 91l-128 -91l57 -45l71 50l71 -50zM175 310q0 -65 25 -122t68 -99.5t101 -67t124 -24.5t124 24.5t100.5 67t67.5 99.5t25 122v314h-70v-345q-6 -45 -27.5 -84.5t-54.5 -68.5t-75.5 -46t-89.5 -17t-89.5 17t-75.5 46t-55 68.5t-28 84.5v345h-70v-314z" />
    <glyph glyph-name="FL00DCh" unicode="&#xdc;" horiz-adv-x="974" 
d="M340 739q0 -23 16 -38.5t39 -15.5t39 15.5t16 38.5t-16 38.5t-39 15.5t-39 -15.5t-16 -38.5zM524 739q0 -23 16 -38.5t39 -15.5t39 15.5t16 38.5t-16 38.5t-39 15.5t-39 -15.5t-16 -38.5zM175 310q0 -65 25 -122t68 -99.5t101 -67t124 -24.5t124 24.5t100.5 67t67.5 99.5
t25 122v314h-70v-345q-6 -45 -27.5 -84.5t-54.5 -68.5t-75.5 -46t-89.5 -17t-89.5 17t-75.5 46t-55 68.5t-28 84.5v345h-70v-314z" />
    <glyph glyph-name="FL00DDh" unicode="&#xdd;" horiz-adv-x="905" 
d="M527 756l-60 51l-90 -89l57 -47zM417 0h70v225l271 399h-84l-224 -321l-219 321h-84l270 -404v-220z" />
    <glyph glyph-name="FL00DEh" unicode="&#xde;" horiz-adv-x="891" 
d="M175 0v624h70v-132h325q31 0 59 -14.5t49 -39t33.5 -58.5t12.5 -73q0 -35 -12 -66.5t-33 -56t-48.5 -39t-58.5 -14.5h-105v63h93q24 0 41 11t28.5 28t16.5 37t5 38q0 20 -6.5 41.5t-18.5 39t-29.5 29t-39.5 11.5h-312v-429h-70z" />
    <glyph glyph-name="FL00DFh" unicode="&#xdf;" horiz-adv-x="885" 
d="M461 344h126q23 17 40.5 44.5t17.5 52.5q0 20 -6.5 41.5t-18.5 39t-29.5 28.5t-39.5 11h-212q-21 0 -38.5 -11t-30 -28.5t-20 -38.5t-7.5 -41v-517h-73v512q0 39 12.5 73t33.5 59.5t49 40t60 14.5h239q31 0 59 -14.5t49 -39t33.5 -58.5t12.5 -73q0 -21 -5.5 -40
t-14.5 -35.5t-20 -30t-21 -23.5q10 -11 20.5 -24t19.5 -29t15 -34t6 -38q0 -39 -12.5 -73t-33.5 -58.5t-49 -39t-59 -14.5h-104v63h93q22 0 39 11t28.5 28.5t17.5 39t6 41.5q0 26 -17 53t-41 45h-125v63z" />
    <glyph glyph-name="FL00E0h" unicode="&#xe0;" horiz-adv-x="951" 
d="M468 807l-60 -51l93 -85l57 47zM147 0h78l252 507l217 -444h-294l-43 -63h447l-327 657z" />
    <glyph glyph-name="FL00E1h" unicode="&#xe1;" horiz-adv-x="951" 
d="M542 756l-60 51l-90 -89l57 -47zM147 0h78l252 507l217 -444h-294l-43 -63h447l-327 657z" />
    <glyph glyph-name="FL00E2h" unicode="&#xe2;" horiz-adv-x="951" 
d="M603 716l-128 91l-128 -91l57 -45l71 50l71 -50zM147 0h78l252 507l217 -444h-294l-43 -63h447l-327 657z" />
    <glyph glyph-name="FL00E3h" unicode="&#xe3;" horiz-adv-x="951" 
d="M369 671l70 49l72 -50l128 91l-57 45l-71 -50l-71 51l-128 -91zM147 0h78l252 507l217 -444h-294l-43 -63h447l-327 657z" />
    <glyph glyph-name="FL00E4h" unicode="&#xe4;" horiz-adv-x="951" 
d="M328 739q0 -23 16 -38.5t39 -15.5t39 15.5t16 38.5t-16 38.5t-39 15.5t-39 -15.5t-16 -38.5zM512 739q0 -23 16 -38.5t39 -15.5t39 15.5t16 38.5t-16 38.5t-39 15.5t-39 -15.5t-16 -38.5zM147 0h78l252 507l217 -444h-294l-43 -63h447l-327 657z" />
    <glyph glyph-name="FL00E5h" unicode="&#xe5;" horiz-adv-x="951" 
d="M225 0h-78l330 657l327 -657h-447l43 63h294l-217 444zM420 739q0 23 16 38.5t39 15.5t39 -15.5t16 -38.5t-16 -38.5t-39 -15.5t-39 15.5t-16 38.5zM454 739q0 -11 6 -16.5t15 -5.5q8 0 14 5.5t6 16.5q0 8 -6 13t-14 5q-9 0 -15 -5t-6 -13z" />
    <glyph glyph-name="FL00E6h" unicode="&#xe6;" horiz-adv-x="1348" 
d="M147 0l330 657l221 -444v411h475v-63h-405v-498h405v-63h-816l43 63h294l-217 444l-252 -507h-78zM1165 263h-299v63h299v-63z" />
    <glyph glyph-name="FL00E7h" unicode="&#xe7;" horiz-adv-x="934" 
d="M162 312q0 65 25 122t67.5 100t100.5 67.5t124 24.5q48 0 92 -13.5t81 -38t66.5 -58.5t48.5 -74l-56 -36q-15 33 -38.5 61t-53.5 49t-65.5 32.5t-73.5 11.5q-51 0 -97 -20.5t-80.5 -54.5t-54.5 -79.5t-20 -94.5q0 -50 20 -94.5t54 -79t80 -54.5t97 -20q35 0 68 9.5
t61.5 26.5t52 41t39.5 53l48 -49q-35 -57 -90.5 -94.5t-124.5 -48.5q-4 -29 -12.5 -50.5t-23.5 -39t-37.5 -32.5t-54.5 -31l-37 56q24 11 40.5 20.5t27 20t16 23t7.5 30.5q-62 3 -116.5 29t-94.5 68.5t-63 98t-23 118.5z" />
    <glyph glyph-name="FL00E8h" unicode="&#xe8;" horiz-adv-x="825" 
d="M397 807l-60 -51l93 -85l57 47zM175 624v-624h475v63h-405v498h405v63h-475zM642 263v63h-299v-63h299z" />
    <glyph glyph-name="FL00EAh" unicode="&#xe9;" horiz-adv-x="825" 
d="M487 756l-60 51l-90 -89l57 -47zM175 624v-624h475v63h-405v498h405v63h-475zM642 263v63h-299v-63h299z" />
    <glyph glyph-name="FL00E9h" unicode="&#xea;" horiz-adv-x="825" 
d="M343 263h299v63h-299v-63zM650 624h-475v-624h475v63h-405v498h405v63zM540 716l-128 91l-128 -91l57 -45l71 50l71 -50z" />
    <glyph glyph-name="FL00EBh" unicode="&#xeb;" horiz-adv-x="825" 
d="M265 739q0 -23 16 -38.5t39 -15.5t39 15.5t16 38.5t-16 38.5t-39 15.5t-39 -15.5t-16 -38.5zM449 739q0 -23 16 -38.5t39 -15.5t39 15.5t16 38.5t-16 38.5t-39 15.5t-39 -15.5t-16 -38.5zM175 624v-624h475v63h-405v498h405v63h-475zM642 263v63h-299v-63h299z" />
    <glyph glyph-name="FL00ECh" unicode="&#xec;" horiz-adv-x="420" 
d="M195 807l-60 -51l93 -85l57 47zM175 624v-624h70v624h-70z" />
    <glyph glyph-name="FL00EDh" unicode="&#xed;" horiz-adv-x="420" 
d="M285 756l-60 51l-90 -89l57 -47zM175 624v-624h70v624h-70z" />
    <glyph glyph-name="FL00EEh" unicode="&#xee;" horiz-adv-x="420" 
d="M338 716l-128 91l-128 -91l57 -45l71 50l71 -50zM175 624v-624h70v624h-70z" />
    <glyph glyph-name="FL00EFh" unicode="&#xef;" horiz-adv-x="420" 
d="M63 739q0 -23 16 -38.5t39 -15.5t39 15.5t16 38.5t-16 38.5t-39 15.5t-39 -15.5t-16 -38.5zM247 739q0 -23 16 -38.5t39 -15.5t39 15.5t16 38.5t-16 38.5t-39 15.5t-39 -15.5t-16 -38.5zM175 624v-624h70v624h-70z" />
    <glyph glyph-name="FL00F0h" unicode="&#xf0;" 
d="M448 428v130q-33 -5 -63.5 -18.5t-56.5 -33.5t-47 -45.5t-34 -54.5l-56 36q17 36 43.5 67.5t60 55t72.5 39t81 20.5v119h62v-120q59 -7 111 -34t91 -68.5t61.5 -95t22.5 -113.5q0 -65 -25 -122.5t-67.5 -100t-100.5 -67.5t-124 -25q-54 0 -110.5 24.5t-102.5 67.5
t-75 100t-29 123v15h569q-3 42 -21.5 80.5t-48.5 69.5t-69 52.5t-82 28.5v-130h-62zM726 264h-495q14 -45 39.5 -82t58.5 -63.5t71.5 -41.5t78.5 -15q45 0 86 16t74 43t55.5 64t31.5 79z" />
    <glyph glyph-name="FL00F1h" unicode="&#xf1;" horiz-adv-x="932" 
d="M359 671l70 49l72 -50l128 91l-57 45l-71 -50l-71 51l-128 -91zM245 0v566l402 -566h110v624h-70v-565l-395 565h-117v-624h70z" />
    <glyph glyph-name="FL00F2h" unicode="&#xf2;" 
d="M464 807l-60 -51l93 -85l57 47zM228 311q0 49 20 94.5t54.5 79.5t80.5 54.5t97 20.5t97 -20.5t80 -54.5t54 -79.5t20 -94.5q0 -36 -11 -70t-30.5 -63.5t-46.5 -53t-58 -38.5l37 -56q39 19 71 48.5t55 66t35.5 79t12.5 88.5q0 65 -25 122t-67.5 100t-100.5 67.5t-124 24.5
t-124 -24.5t-100.5 -67.5t-67.5 -100t-25 -122q0 -45 12 -87t33.5 -79t52.5 -66.5t69 -49.5l44 55q-32 15 -59 39t-46 53.5t-29.5 63.5t-10.5 70z" />
    <glyph glyph-name="FL00F3h" unicode="&#xf3;" 
d="M554 756l-60 51l-90 -89l57 -47zM228 311q0 49 20 94.5t54.5 79.5t80.5 54.5t97 20.5t97 -20.5t80 -54.5t54 -79.5t20 -94.5q0 -36 -11 -70t-30.5 -63.5t-46.5 -53t-58 -38.5l37 -56q39 19 71 48.5t55 66t35.5 79t12.5 88.5q0 65 -25 122t-67.5 100t-100.5 67.5
t-124 24.5t-124 -24.5t-100.5 -67.5t-67.5 -100t-25 -122q0 -45 12 -87t33.5 -79t52.5 -66.5t69 -49.5l44 55q-32 15 -59 39t-46 53.5t-29.5 63.5t-10.5 70z" />
    <glyph glyph-name="FL00F4h" unicode="&#xf4;" 
d="M607 716l-128 91l-128 -91l57 -45l71 50l71 -50zM228 311q0 49 20 94.5t54.5 79.5t80.5 54.5t97 20.5t97 -20.5t80 -54.5t54 -79.5t20 -94.5q0 -36 -11 -70t-30.5 -63.5t-46.5 -53t-58 -38.5l37 -56q39 19 71 48.5t55 66t35.5 79t12.5 88.5q0 65 -25 122t-67.5 100
t-100.5 67.5t-124 24.5t-124 -24.5t-100.5 -67.5t-67.5 -100t-25 -122q0 -45 12 -87t33.5 -79t52.5 -66.5t69 -49.5l44 55q-32 15 -59 39t-46 53.5t-29.5 63.5t-10.5 70z" />
    <glyph glyph-name="FL00F5h" unicode="&#xf5;" 
d="M228 311q0 49 20 94.5t54.5 79.5t80.5 54.5t97 20.5t97 -20.5t80 -54.5t54 -79.5t20 -94.5q0 -36 -11 -70t-30.5 -63.5t-46.5 -53t-58 -38.5l37 -56q39 19 71 48.5t55 66t35.5 79t12.5 88.5q0 65 -25 122t-67.5 100t-100.5 67.5t-124 24.5t-124 -24.5t-100.5 -67.5
t-67.5 -100t-25 -122q0 -45 12 -87t33.5 -79t52.5 -66.5t69 -49.5l44 55q-32 15 -59 39t-46 53.5t-29.5 63.5t-10.5 70zM372 671l70 49l72 -50l128 91l-57 45l-71 -50l-71 51l-128 -91z" />
    <glyph glyph-name="FL00F6h" unicode="&#xf6;" 
d="M332 739q0 -23 16 -38.5t39 -15.5t39 15.5t16 38.5t-16 38.5t-39 15.5t-39 -15.5t-16 -38.5zM516 739q0 -23 16 -38.5t39 -15.5t39 15.5t16 38.5t-16 38.5t-39 15.5t-39 -15.5t-16 -38.5zM228 311q0 49 20 94.5t54.5 79.5t80.5 54.5t97 20.5t97 -20.5t80 -54.5t54 -79.5
t20 -94.5q0 -36 -11 -70t-30.5 -63.5t-46.5 -53t-58 -38.5l37 -56q39 19 71 48.5t55 66t35.5 79t12.5 88.5q0 65 -25 122t-67.5 100t-100.5 67.5t-124 24.5t-124 -24.5t-100.5 -67.5t-67.5 -100t-25 -122q0 -45 12 -87t33.5 -79t52.5 -66.5t69 -49.5l44 55q-32 15 -59 39
t-46 53.5t-29.5 63.5t-10.5 70z" />
    <glyph glyph-name="FL00F7h" unicode="&#xf7;" horiz-adv-x="879" 
d="M385 180q0 -23 16 -38.5t39 -15.5t39 15.5t16 38.5t-16 38.5t-39 15.5t-39 -15.5t-16 -38.5zM384 476q0 -23 16 -38.5t39 -15.5t39 15.5t16 38.5t-16 38.5t-39 15.5t-39 -15.5t-16 -38.5zM172 360v-64h535v64h-535z" />
    <glyph glyph-name="FL00F8h" unicode="&#xf8;" 
d="M228 311q0 49 20 94.5t54.5 79.5t80.5 54.5t97 20.5t97 -20.5t80 -54.5t54 -79.5t20 -94.5q0 -50 -20.5 -94.5t-55 -79t-80 -54.5t-96.5 -20t-97 20t-80 54.5t-54 79t-20 94.5zM162 312q0 -65 25 -122.5t67.5 -100t100.5 -67.5t124 -25t124 25t100.5 67.5t67.5 100
t25 122.5t-25 122t-67.5 100t-100.5 67.5t-124 24.5t-124 -24.5t-100.5 -67.5t-67.5 -100t-25 -122z" />
    <glyph glyph-name="FL00F9h" unicode="&#xf9;" horiz-adv-x="974" 
d="M472 807l-60 -51l93 -85l57 47zM175 310q0 -65 25 -122t68 -99.5t101 -67t124 -24.5t124 24.5t100.5 67t67.5 99.5t25 122v314h-70v-345q-6 -45 -27.5 -84.5t-54.5 -68.5t-75.5 -46t-89.5 -17t-89.5 17t-75.5 46t-55 68.5t-28 84.5v345h-70v-314z" />
    <glyph glyph-name="FL00FAh" unicode="&#xfa;" horiz-adv-x="974" 
d="M562 756l-60 51l-90 -89l57 -47zM175 310q0 -65 25 -122t68 -99.5t101 -67t124 -24.5t124 24.5t100.5 67t67.5 99.5t25 122v314h-70v-345q-6 -45 -27.5 -84.5t-54.5 -68.5t-75.5 -46t-89.5 -17t-89.5 17t-75.5 46t-55 68.5t-28 84.5v345h-70v-314z" />
    <glyph glyph-name="FL00FBh" unicode="&#xfb;" horiz-adv-x="974" 
d="M615 716l-128 91l-128 -91l57 -45l71 50l71 -50zM175 310q0 -65 25 -122t68 -99.5t101 -67t124 -24.5t124 24.5t100.5 67t67.5 99.5t25 122v314h-70v-345q-6 -45 -27.5 -84.5t-54.5 -68.5t-75.5 -46t-89.5 -17t-89.5 17t-75.5 46t-55 68.5t-28 84.5v345h-70v-314z" />
    <glyph glyph-name="FL00FCh" unicode="&#xfc;" horiz-adv-x="974" 
d="M340 739q0 -23 16 -38.5t39 -15.5t39 15.5t16 38.5t-16 38.5t-39 15.5t-39 -15.5t-16 -38.5zM524 739q0 -23 16 -38.5t39 -15.5t39 15.5t16 38.5t-16 38.5t-39 15.5t-39 -15.5t-16 -38.5zM175 310q0 -65 25 -122t68 -99.5t101 -67t124 -24.5t124 24.5t100.5 67t67.5 99.5
t25 122v314h-70v-345q-6 -45 -27.5 -84.5t-54.5 -68.5t-75.5 -46t-89.5 -17t-89.5 17t-75.5 46t-55 68.5t-28 84.5v345h-70v-314z" />
    <glyph glyph-name="FL00FDh" unicode="&#xfd;" horiz-adv-x="905" 
d="M527 756l-60 51l-90 -89l57 -47zM417 0h70v225l271 399h-84l-224 -321l-219 321h-84l270 -404v-220z" />
    <glyph glyph-name="FL00FEh" unicode="&#xfe;" horiz-adv-x="891" 
d="M175 0v624h70v-132h325q31 0 59 -14.5t49 -39t33.5 -58.5t12.5 -73q0 -35 -12 -66.5t-33 -56t-48.5 -39t-58.5 -14.5h-105v63h93q24 0 41 11t28.5 28t16.5 37t5 38q0 20 -6.5 41.5t-18.5 39t-29.5 29t-39.5 11.5h-312v-429h-70z" />
    <glyph glyph-name="FL00FFh" unicode="&#xff;" horiz-adv-x="905" 
d="M305 739q0 -23 16 -38.5t39 -15.5t39 15.5t16 38.5t-16 38.5t-39 15.5t-39 -15.5t-16 -38.5zM489 739q0 -23 16 -38.5t39 -15.5t39 15.5t16 38.5t-16 38.5t-39 15.5t-39 -15.5t-16 -38.5zM417 0h70v225l271 399h-84l-224 -321l-219 321h-84l270 -404v-220z" />
    </font>
</defs>
</svg>
